<?xml version="1.0" encoding="UTF-8"?>
<svg xmlns="http://www.w3.org/2000/svg" xmlns:xlink="http://www.w3.org/1999/xlink" width="48pt" height="48pt" viewBox="0 0 48 48" version="1.1">
<g id="surface712972">
<path style=" stroke:none;fill-rule:nonzero;fill:rgb(96.470588%,52.156863%,12.156863%);fill-opacity:1;" d="M 30.234375 26.644531 C 29.992188 25.835938 29.351562 25.425781 28.546875 25.304688 C 27.507812 25.144531 26.457031 25.339844 25.414062 25.414062 C 24.066406 25.507812 22.714844 25.566406 21.375 25.773438 C 20.820312 26.417969 20.699219 27.328125 21.234375 28.039062 C 21.851562 28.867188 22.96875 29.042969 23.933594 29.023438 C 25.023438 29.007812 26.109375 28.902344 27.1875 28.855469 C 27.9375 28.828125 28.726562 28.742188 29.410156 28.414062 C 30.101562 28.078125 30.460938 27.421875 30.234375 26.644531 Z M 30.234375 26.644531 "/>
<path style=" stroke:none;fill-rule:nonzero;fill:rgb(83.921569%,89.803922%,89.803922%);fill-opacity:1;" d="M 36.160156 24.121094 C 35.898438 23.175781 35.390625 22.3125 34.519531 21.804688 C 33.421875 21.167969 32.164062 20.886719 31.164062 20.082031 C 29.25 18.535156 28.800781 15.9375 27.027344 14.289062 C 25.445312 12.816406 23.464844 12.507812 21.382812 12.355469 C 19.070312 12.1875 16.5 12.253906 14.90625 14.148438 C 14.90625 17.316406 14.90625 20.484375 15.019531 23.652344 C 15.074219 25.265625 15.148438 26.886719 15.289062 28.5 C 15.382812 29.605469 15.617188 30.75 16.191406 31.714844 C 16.695312 32.578125 17.390625 33.300781 18.300781 33.730469 C 19.507812 34.304688 20.878906 34.425781 22.199219 34.40625 C 23.652344 34.386719 25.105469 34.21875 26.550781 34.265625 C 27.84375 34.304688 29.117188 34.425781 30.421875 34.273438 C 31.695312 34.132812 33.054688 33.816406 34.125 33.074219 C 35.015625 32.457031 35.625 31.554688 35.925781 30.515625 C 36.226562 29.457031 36.328125 28.359375 36.375 27.261719 C 36.402344 26.222656 36.429688 25.132812 36.160156 24.121094 Z M 18.9375 19.097656 C 17.738281 18.65625 17.953125 16.667969 18.964844 15.835938 C 20.128906 14.886719 22.144531 14.851562 23.539062 15.234375 C 24.179688 15.414062 24.871094 15.695312 25.273438 16.257812 C 25.695312 16.867188 25.667969 17.632812 25.339844 18.28125 C 24.824219 19.292969 23.289062 19.144531 22.320312 19.238281 C 21.609375 19.304688 20.792969 19.171875 20.070312 19.285156 C 19.707031 19.226562 19.351562 19.179688 18.984375 19.171875 C 18.964844 19.152344 18.945312 19.125 18.9375 19.097656 Z M 30.65625 28.78125 C 30.007812 29.371094 29.195312 29.644531 28.339844 29.785156 C 27.402344 29.933594 26.4375 29.898438 25.492188 29.972656 C 24.308594 30.066406 23.023438 30.195312 21.890625 29.757812 C 20.980469 29.410156 20.148438 28.695312 19.921875 27.703125 C 19.695312 26.710938 19.929688 25.753906 20.644531 25.003906 C 20.757812 24.882812 20.898438 24.835938 21.027344 24.84375 C 21.09375 24.796875 21.179688 24.757812 21.28125 24.742188 C 23.023438 24.476562 24.796875 24.46875 26.550781 24.289062 C 28.265625 24.113281 30.695312 24.242188 31.210938 26.304688 C 31.414062 27.160156 31.359375 28.144531 30.65625 28.78125 Z M 30.65625 28.78125 "/>
<path style=" stroke:none;fill-rule:nonzero;fill:rgb(96.470588%,52.156863%,12.156863%);fill-opacity:1;" d="M 24.507812 16.988281 C 24.347656 16.632812 23.914062 16.445312 23.570312 16.320312 C 22.59375 15.984375 21.355469 15.957031 20.371094 16.265625 C 19.789062 16.445312 19.285156 16.78125 19.152344 17.417969 C 19.058594 17.90625 19.097656 18.207031 19.648438 18.140625 C 19.828125 18.121094 19.960938 18.179688 20.054688 18.273438 C 20.511719 18.234375 20.980469 18.261719 21.429688 18.261719 C 22.199219 18.253906 23.042969 18.234375 23.792969 18.085938 C 23.851562 18.074219 24.335938 17.972656 24.355469 17.933594 C 24.421875 17.8125 24.488281 17.679688 24.515625 17.550781 C 24.5625 17.363281 24.589844 17.175781 24.507812 16.988281 Z M 24.507812 16.988281 "/>
<path style=" stroke:none;fill-rule:nonzero;fill:rgb(96.470588%,52.156863%,12.156863%);fill-opacity:1;" d="M 44.878906 19.574219 C 44.550781 17.117188 43.914062 14.625 42.617188 12.476562 C 38.4375 5.585938 29.257812 3.113281 21.664062 3.917969 C 16.960938 4.414062 12.367188 6.289062 8.832031 9.488281 C 6.945312 11.195312 5.382812 13.179688 4.398438 15.542969 C 3.414062 17.914062 3.019531 20.476562 2.898438 23.023438 C 2.886719 23.136719 2.859375 23.230469 2.804688 23.304688 C 2.832031 26.398438 3.535156 29.445312 4.761719 32.296875 C 5.945312 35.042969 7.601562 37.660156 9.796875 39.722656 C 11.289062 41.128906 13.011719 42.289062 14.945312 43.003906 C 17.316406 43.875 19.941406 43.988281 22.433594 43.867188 C 25.351562 43.734375 28.238281 43.257812 31.085938 42.648438 C 33.414062 42.148438 35.757812 41.476562 37.855469 40.332031 C 40.003906 39.160156 41.90625 37.527344 43.085938 35.34375 C 44.335938 33.019531 44.898438 30.421875 45.085938 27.816406 C 45.289062 25.078125 45.234375 22.285156 44.878906 19.574219 Z M 37.339844 28.125 C 37.191406 30.261719 36.664062 32.550781 34.800781 33.851562 C 32.664062 35.34375 29.90625 35.484375 27.394531 35.335938 C 24.601562 35.175781 21.65625 35.859375 18.929688 35.0625 C 16.894531 34.460938 15.382812 32.972656 14.71875 30.957031 C 14.351562 29.839844 14.25 28.707031 14.175781 27.542969 C 14.070312 26.035156 14.007812 24.515625 13.960938 22.996094 C 13.867188 19.941406 13.867188 16.875 13.867188 13.820312 C 13.867188 13.539062 14.054688 13.359375 14.269531 13.304688 C 15.402344 12.046875 17.023438 11.4375 18.703125 11.304688 C 19.613281 11.242188 20.523438 11.269531 21.429688 11.335938 C 22.226562 11.390625 23.042969 11.429688 23.832031 11.597656 C 25.304688 11.898438 26.710938 12.535156 27.789062 13.601562 C 28.351562 14.164062 28.835938 14.792969 29.242188 15.488281 C 29.699219 16.285156 30.074219 17.128906 30.589844 17.898438 C 31.359375 19.050781 32.324219 19.734375 33.589844 20.269531 C 34.640625 20.710938 35.644531 21.160156 36.335938 22.117188 C 37.574219 23.820312 37.480469 26.109375 37.339844 28.125 Z M 37.339844 28.125 "/>
<path style=" stroke:none;fill-rule:nonzero;fill:rgb(0%,0%,0%);fill-opacity:1;" d="M 46.152344 22.367188 C 46.023438 19.585938 45.617188 16.773438 44.585938 14.175781 C 43.855469 12.320312 42.757812 10.648438 41.390625 9.207031 C 38.644531 6.28125 34.855469 4.5 31.011719 3.542969 C 27.121094 2.578125 22.988281 2.484375 19.058594 3.28125 C 14.503906 4.210938 10.257812 6.488281 7.003906 9.816406 C 5.296875 11.570312 3.984375 13.632812 3.148438 15.929688 C 2.335938 18.160156 2.007812 20.511719 1.882812 22.875 C 1.820312 22.960938 1.78125 23.070312 1.78125 23.203125 C 1.78125 27.5625 3.113281 31.867188 5.296875 35.617188 C 7.378906 39.1875 10.472656 42.367188 14.382812 43.875 C 16.6875 44.765625 19.199219 44.953125 21.65625 44.914062 C 24.5625 44.878906 27.460938 44.417969 30.308594 43.847656 C 34.996094 42.910156 39.84375 41.371094 42.929688 37.472656 C 46.210938 33.308594 46.386719 27.429688 46.152344 22.367188 Z M 45.085938 27.804688 C 44.886719 30.421875 44.335938 33.019531 43.085938 35.335938 C 41.914062 37.507812 40.011719 39.140625 37.855469 40.320312 C 35.757812 41.464844 33.414062 42.140625 31.085938 42.636719 C 28.238281 43.246094 25.351562 43.726562 22.433594 43.855469 C 19.929688 43.96875 17.316406 43.855469 14.945312 42.992188 C 13.011719 42.28125 11.289062 41.117188 9.796875 39.710938 C 7.601562 37.648438 5.945312 35.042969 4.761719 32.289062 C 3.535156 29.445312 2.832031 26.398438 2.804688 23.296875 C 2.859375 23.222656 2.886719 23.128906 2.898438 23.015625 C 3.019531 20.464844 3.421875 17.90625 4.398438 15.535156 C 5.371094 13.171875 6.945312 11.183594 8.832031 9.476562 C 12.355469 6.28125 16.949219 4.414062 21.664062 3.910156 C 29.269531 3.101562 38.445312 5.585938 42.617188 12.476562 C 43.914062 14.617188 44.550781 17.109375 44.878906 19.574219 C 45.234375 22.285156 45.289062 25.078125 45.085938 27.804688 Z M 45.085938 27.804688 "/>
<path style=" stroke:none;fill-rule:nonzero;fill:rgb(0%,0%,0%);fill-opacity:1;" d="M 36.335938 22.105469 C 35.644531 21.148438 34.640625 20.699219 33.589844 20.257812 C 32.324219 19.726562 31.351562 19.050781 30.589844 17.886719 C 30.074219 17.117188 29.699219 16.273438 29.242188 15.476562 C 28.847656 14.785156 28.351562 14.15625 27.789062 13.59375 C 26.71875 12.523438 25.304688 11.898438 23.832031 11.585938 C 23.042969 11.429688 22.238281 11.382812 21.429688 11.324219 C 20.523438 11.257812 19.613281 11.230469 18.703125 11.296875 C 17.023438 11.429688 15.402344 12.039062 14.269531 13.292969 C 14.054688 13.351562 13.867188 13.527344 13.867188 13.808594 C 13.867188 16.867188 13.867188 19.929688 13.960938 22.988281 C 14.007812 24.507812 14.070312 26.015625 14.175781 27.535156 C 14.25 28.695312 14.351562 29.832031 14.71875 30.945312 C 15.382812 32.960938 16.894531 34.453125 18.929688 35.054688 C 21.65625 35.851562 24.601562 35.164062 27.394531 35.324219 C 29.90625 35.464844 32.664062 35.324219 34.800781 33.84375 C 36.664062 32.539062 37.191406 30.253906 37.339844 28.117188 C 37.480469 26.109375 37.574219 23.820312 36.335938 22.105469 Z M 36.367188 27.261719 C 36.328125 28.359375 36.226562 29.457031 35.914062 30.515625 C 35.617188 31.554688 34.996094 32.457031 34.117188 33.074219 C 33.046875 33.816406 31.6875 34.132812 30.414062 34.273438 C 29.117188 34.414062 27.84375 34.304688 26.539062 34.265625 C 25.085938 34.21875 23.632812 34.386719 22.191406 34.40625 C 20.867188 34.425781 19.5 34.304688 18.289062 33.730469 C 17.382812 33.300781 16.6875 32.578125 16.179688 31.714844 C 15.609375 30.75 15.375 29.605469 15.28125 28.5 C 15.148438 26.886719 15.066406 25.273438 15.007812 23.652344 C 14.898438 20.484375 14.898438 17.316406 14.898438 14.148438 C 16.492188 12.242188 19.070312 12.1875 21.375 12.355469 C 23.457031 12.507812 25.433594 12.816406 27.019531 14.289062 C 28.789062 15.9375 29.242188 18.535156 31.152344 20.082031 C 32.15625 20.898438 33.414062 21.167969 34.507812 21.804688 C 35.382812 22.3125 35.886719 23.175781 36.148438 24.121094 C 36.429688 25.132812 36.402344 26.222656 36.367188 27.261719 Z M 36.367188 27.261719 "/>
<path style=" stroke:none;fill-rule:nonzero;fill:rgb(0%,0%,0%);fill-opacity:1;" d="M 31.199219 26.304688 C 30.683594 24.242188 28.265625 24.113281 26.539062 24.289062 C 24.789062 24.46875 23.023438 24.476562 21.273438 24.742188 C 21.167969 24.757812 21.09375 24.796875 21.019531 24.84375 C 20.886719 24.84375 20.757812 24.890625 20.632812 25.003906 C 19.929688 25.742188 19.6875 26.710938 19.914062 27.703125 C 20.136719 28.695312 20.972656 29.398438 21.882812 29.757812 C 23.015625 30.195312 24.300781 30.066406 25.480469 29.972656 C 26.429688 29.898438 27.394531 29.933594 28.332031 29.785156 C 29.183594 29.652344 30 29.371094 30.648438 28.78125 C 31.359375 28.144531 31.414062 27.160156 31.199219 26.304688 Z M 29.398438 28.414062 C 28.714844 28.742188 27.929688 28.828125 27.179688 28.855469 C 26.089844 28.902344 25.003906 29.007812 23.925781 29.023438 C 22.949219 29.042969 21.84375 28.867188 21.226562 28.039062 C 20.691406 27.328125 20.8125 26.410156 21.367188 25.773438 C 22.707031 25.566406 24.054688 25.507812 25.40625 25.414062 C 26.445312 25.351562 27.496094 25.144531 28.539062 25.304688 C 29.351562 25.425781 29.992188 25.835938 30.226562 26.644531 C 30.460938 27.421875 30.101562 28.078125 29.398438 28.414062 Z M 25.265625 16.265625 C 24.871094 15.695312 24.179688 15.421875 23.53125 15.242188 C 22.132812 14.859375 20.117188 14.898438 18.957031 15.84375 C 17.945312 16.667969 17.71875 18.664062 18.929688 19.105469 C 18.9375 19.132812 18.957031 19.164062 18.964844 19.191406 C 19.332031 19.199219 19.695312 19.246094 20.054688 19.304688 C 20.785156 19.191406 21.589844 19.320312 22.304688 19.257812 C 23.269531 19.164062 24.804688 19.3125 25.320312 18.300781 C 25.660156 17.632812 25.695312 16.875 25.265625 16.265625 Z M 24.515625 17.550781 C 24.488281 17.679688 24.414062 17.8125 24.355469 17.933594 C 24.335938 17.972656 23.859375 18.066406 23.792969 18.085938 C 23.042969 18.242188 22.199219 18.253906 21.429688 18.261719 C 20.980469 18.261719 20.503906 18.234375 20.054688 18.273438 C 19.960938 18.179688 19.828125 18.113281 19.648438 18.140625 C 19.097656 18.207031 19.058594 17.90625 19.152344 17.417969 C 19.273438 16.78125 19.789062 16.445312 20.371094 16.265625 C 21.355469 15.957031 22.59375 15.984375 23.570312 16.320312 C 23.914062 16.445312 24.347656 16.632812 24.507812 16.988281 C 24.589844 17.175781 24.5625 17.363281 24.515625 17.550781 Z M 24.515625 17.550781 "/>
<path style=" stroke:none;fill-rule:nonzero;fill:rgb(45.490196%,80%,81.176471%);fill-opacity:1;" d="M 35.433594 35.578125 C 35.484375 33.832031 35.472656 32.027344 35.34375 30.285156 C 37.65625 30.253906 39.785156 30.5 42.09375 30.472656 C 42.128906 32.164062 42.058594 33.652344 42.09375 35.34375 C 44.0625 35.53125 45.75 35.25 47.4375 35.34375 C 47.523438 37.46875 47.53125 42.09375 47.53125 42.09375 C 47.484375 42.179688 45.878906 42.28125 45.171875 42.242188 C 44.15625 42.1875 43.3125 42.28125 42.375 42.28125 C 42.1875 44.15625 42.445312 45.675781 42.28125 47.53125 C 40.03125 47.4375 37.875 47.4375 35.53125 47.53125 C 35.53125 47.53125 35.527344 47.121094 35.53125 46.96875 C 35.59375 45.289062 35.472656 43.867188 35.53125 42.1875 C 33.824219 42.226562 32.027344 42.433594 30.378906 42.375 C 30.363281 40.253906 30.378906 36.09375 30.285156 35.71875 C 30.265625 35.644531 33.753906 35.71875 35.390625 35.578125 Z M 35.433594 35.578125 "/>
<path style=" stroke:none;fill-rule:nonzero;fill:rgb(0%,0%,0%);fill-opacity:1;" d="M 42.28125 48 C 42.277344 48 42.269531 48 42.261719 48 C 40.019531 47.90625 37.886719 47.90625 35.550781 48 C 35.425781 48.003906 35.300781 47.957031 35.210938 47.871094 C 35.117188 47.785156 35.066406 47.664062 35.0625 47.539062 C 35.0625 47.496094 35.058594 47.109375 35.066406 46.953125 C 35.09375 46.125 35.078125 45.34375 35.0625 44.585938 C 35.050781 43.972656 35.039062 43.339844 35.050781 42.671875 C 34.550781 42.691406 34.039062 42.722656 33.542969 42.75 C 32.488281 42.816406 31.394531 42.878906 30.363281 42.84375 C 30.109375 42.835938 29.910156 42.628906 29.910156 42.378906 C 29.90625 41.867188 29.902344 41.242188 29.902344 40.574219 C 29.894531 38.8125 29.886719 36.144531 29.828125 35.824219 C 29.792969 35.6875 29.824219 35.542969 29.914062 35.429688 C 30.066406 35.234375 30.246094 35.230469 30.722656 35.21875 C 30.996094 35.214844 31.367188 35.210938 31.796875 35.207031 C 32.769531 35.203125 34.058594 35.195312 34.976562 35.140625 C 35.015625 33.355469 34.984375 31.773438 34.878906 30.316406 C 34.867188 30.1875 34.914062 30.0625 35 29.964844 C 35.085938 29.871094 35.210938 29.816406 35.339844 29.816406 C 36.511719 29.800781 37.644531 29.855469 38.742188 29.910156 C 39.828125 29.960938 40.945312 30.015625 42.089844 30.003906 C 42.347656 30 42.558594 30.203125 42.5625 30.460938 C 42.582031 31.316406 42.570312 32.128906 42.5625 32.914062 C 42.554688 33.558594 42.546875 34.226562 42.554688 34.910156 C 43.472656 34.96875 44.335938 34.933594 45.175781 34.898438 C 45.960938 34.867188 46.703125 34.835938 47.464844 34.878906 C 47.703125 34.890625 47.894531 35.085938 47.90625 35.328125 C 47.992188 37.433594 48 42.046875 48 42.09375 C 48 42.175781 47.976562 42.257812 47.9375 42.332031 C 47.796875 42.566406 47.601562 42.621094 46.628906 42.679688 C 46.179688 42.710938 45.558594 42.730469 45.148438 42.710938 C 44.546875 42.679688 43.992188 42.699219 43.457031 42.722656 C 43.242188 42.730469 43.027344 42.738281 42.808594 42.746094 C 42.753906 43.515625 42.773438 44.226562 42.789062 44.972656 C 42.808594 45.792969 42.832031 46.644531 42.75 47.574219 C 42.726562 47.816406 42.523438 48 42.28125 48 Z M 38.941406 46.992188 C 39.910156 46.992188 40.871094 47.011719 41.847656 47.046875 C 41.886719 46.34375 41.871094 45.683594 41.851562 44.996094 C 41.832031 44.125 41.808594 43.226562 41.910156 42.234375 C 41.933594 41.996094 42.136719 41.8125 42.375 41.8125 C 42.730469 41.8125 43.0625 41.800781 43.417969 41.785156 C 43.976562 41.761719 44.554688 41.738281 45.199219 41.773438 C 45.6875 41.800781 46.582031 41.757812 47.0625 41.707031 C 47.058594 40.640625 47.042969 37.617188 46.984375 35.796875 C 46.40625 35.785156 45.824219 35.808594 45.214844 35.835938 C 44.21875 35.878906 43.1875 35.921875 42.050781 35.8125 C 41.8125 35.789062 41.632812 35.59375 41.625 35.355469 C 41.609375 34.5 41.617188 33.6875 41.625 32.902344 C 41.632812 32.269531 41.640625 31.617188 41.632812 30.941406 C 40.628906 30.941406 39.648438 30.890625 38.695312 30.847656 C 37.769531 30.800781 36.816406 30.753906 35.847656 30.75 C 35.933594 32.214844 35.953125 33.804688 35.902344 35.59375 C 35.894531 35.847656 35.6875 36.046875 35.433594 36.046875 L 35.414062 36.046875 C 34.464844 36.128906 32.929688 36.136719 31.804688 36.144531 C 31.4375 36.148438 31.0625 36.152344 30.789062 36.15625 C 30.820312 36.867188 30.832031 38.25 30.839844 40.574219 C 30.839844 41.050781 30.839844 41.507812 30.84375 41.917969 C 31.703125 41.921875 32.609375 41.867188 33.488281 41.816406 C 34.15625 41.777344 34.847656 41.734375 35.523438 41.71875 C 35.652344 41.714844 35.777344 41.765625 35.867188 41.859375 C 35.957031 41.949219 36.007812 42.078125 36 42.207031 C 35.972656 43.03125 35.988281 43.8125 36 44.570312 C 36.015625 45.339844 36.03125 46.132812 36 46.984375 C 36 47 36 47.023438 36 47.042969 C 37.007812 47.011719 37.980469 46.992188 38.941406 46.992188 Z M 38.941406 46.992188 "/>
</g>
</svg>
