<?xml version="1.0" encoding="UTF-8"?>
<svg xmlns="http://www.w3.org/2000/svg" xmlns:xlink="http://www.w3.org/1999/xlink" width="48pt" height="48pt" viewBox="0 0 48 48" version="1.1">
<g id="surface713370">
<path style=" stroke:none;fill-rule:nonzero;fill:rgb(80%,80%,80%);fill-opacity:1;" d="M 24 48 C 10.746094 48 0 37.253906 0 24 C 0 10.746094 10.746094 0 24 0 C 37.253906 0 48 10.746094 48 24 C 48 37.253906 37.253906 48 24 48 Z M 24 48 "/>
<path style=" stroke:none;fill-rule:nonzero;fill:rgb(96.470588%,52.156863%,12.156863%);fill-opacity:1;" d="M 28.921875 26.050781 C 28.730469 25.414062 28.226562 25.089844 27.589844 24.992188 C 26.769531 24.867188 25.9375 25.023438 25.117188 25.082031 C 24.050781 25.15625 22.988281 25.199219 21.929688 25.363281 C 21.492188 25.875 21.394531 26.589844 21.816406 27.152344 C 22.304688 27.804688 23.1875 27.945312 23.949219 27.929688 C 24.808594 27.914062 25.664062 27.835938 26.515625 27.796875 C 27.109375 27.773438 27.730469 27.707031 28.269531 27.449219 C 28.816406 27.183594 29.097656 26.664062 28.921875 26.050781 Z M 28.921875 26.050781 "/>
<path style=" stroke:none;fill-rule:nonzero;fill:rgb(83.921569%,89.803922%,89.803922%);fill-opacity:1;" d="M 33.597656 24.0625 C 33.390625 23.3125 32.992188 22.632812 32.300781 22.234375 C 31.4375 21.730469 30.445312 21.507812 29.652344 20.871094 C 28.144531 19.652344 27.789062 17.601562 26.390625 16.300781 C 25.140625 15.136719 23.578125 14.894531 21.9375 14.773438 C 20.109375 14.640625 18.082031 14.695312 16.824219 16.1875 C 16.824219 18.6875 16.824219 21.191406 16.914062 23.691406 C 16.957031 24.964844 17.015625 26.242188 17.125 27.515625 C 17.199219 28.390625 17.386719 29.292969 17.835938 30.054688 C 18.238281 30.734375 18.785156 31.304688 19.5 31.644531 C 20.457031 32.097656 21.535156 32.191406 22.578125 32.179688 C 23.726562 32.164062 24.875 32.03125 26.011719 32.066406 C 27.035156 32.097656 28.039062 32.191406 29.070312 32.074219 C 30.074219 31.964844 31.148438 31.710938 31.992188 31.128906 C 32.695312 30.640625 33.175781 29.929688 33.414062 29.105469 C 33.648438 28.269531 33.730469 27.40625 33.765625 26.539062 C 33.789062 25.71875 33.8125 24.859375 33.597656 24.0625 Z M 20.003906 20.09375 C 19.058594 19.746094 19.226562 18.179688 20.027344 17.519531 C 20.945312 16.773438 22.535156 16.742188 23.636719 17.046875 C 24.140625 17.1875 24.6875 17.410156 25.007812 17.851562 C 25.339844 18.332031 25.316406 18.941406 25.058594 19.453125 C 24.652344 20.25 23.4375 20.132812 22.675781 20.207031 C 22.113281 20.257812 21.46875 20.152344 20.898438 20.242188 C 20.613281 20.199219 20.332031 20.160156 20.042969 20.152344 C 20.027344 20.140625 20.011719 20.117188 20.003906 20.09375 Z M 29.253906 27.738281 C 28.742188 28.203125 28.101562 28.417969 27.425781 28.53125 C 26.6875 28.648438 25.925781 28.617188 25.175781 28.679688 C 24.246094 28.753906 23.230469 28.855469 22.335938 28.507812 C 21.617188 28.234375 20.960938 27.671875 20.78125 26.886719 C 20.605469 26.101562 20.789062 25.347656 21.351562 24.757812 C 21.441406 24.660156 21.550781 24.625 21.65625 24.628906 C 21.707031 24.59375 21.773438 24.5625 21.855469 24.550781 C 23.230469 24.34375 24.628906 24.335938 26.011719 24.195312 C 27.367188 24.054688 29.285156 24.15625 29.691406 25.785156 C 29.851562 26.457031 29.808594 27.234375 29.253906 27.738281 Z M 29.253906 27.738281 "/>
<path style=" stroke:none;fill-rule:nonzero;fill:rgb(96.470588%,52.156863%,12.156863%);fill-opacity:1;" d="M 24.398438 18.429688 C 24.273438 18.148438 23.933594 18 23.660156 17.90625 C 22.890625 17.636719 21.914062 17.617188 21.136719 17.859375 C 20.679688 18 20.277344 18.265625 20.175781 18.769531 C 20.101562 19.15625 20.128906 19.390625 20.566406 19.339844 C 20.707031 19.324219 20.8125 19.371094 20.886719 19.445312 C 21.246094 19.414062 21.617188 19.4375 21.972656 19.4375 C 22.578125 19.429688 23.246094 19.414062 23.835938 19.296875 C 23.882812 19.289062 24.265625 19.207031 24.28125 19.175781 C 24.332031 19.082031 24.386719 18.976562 24.40625 18.875 C 24.445312 18.726562 24.464844 18.578125 24.398438 18.429688 Z M 24.398438 18.429688 "/>
<path style=" stroke:none;fill-rule:nonzero;fill:rgb(96.470588%,52.156863%,12.156863%);fill-opacity:1;" d="M 40.480469 20.472656 C 40.21875 18.535156 39.714844 16.566406 38.695312 14.871094 C 35.394531 9.433594 28.152344 7.480469 22.15625 8.117188 C 18.445312 8.507812 14.816406 9.988281 12.027344 12.511719 C 10.542969 13.855469 9.304688 15.425781 8.527344 17.289062 C 7.75 19.164062 7.441406 21.183594 7.34375 23.195312 C 7.335938 23.285156 7.316406 23.359375 7.269531 23.417969 C 7.292969 25.859375 7.847656 28.261719 8.816406 30.511719 C 9.75 32.679688 11.058594 34.746094 12.789062 36.375 C 13.96875 37.484375 15.328125 38.402344 16.851562 38.960938 C 18.726562 39.652344 20.796875 39.738281 22.765625 39.644531 C 25.066406 39.539062 27.34375 39.164062 29.59375 38.683594 C 31.429688 38.289062 33.277344 37.757812 34.9375 36.855469 C 36.632812 35.929688 38.132812 34.640625 39.066406 32.917969 C 40.050781 31.082031 40.492188 29.03125 40.640625 26.976562 C 40.804688 24.816406 40.757812 22.609375 40.480469 20.472656 Z M 34.53125 27.21875 C 34.410156 28.90625 33.996094 30.710938 32.523438 31.742188 C 30.835938 32.917969 28.660156 33.027344 26.679688 32.910156 C 24.472656 32.785156 22.152344 33.324219 19.996094 32.695312 C 18.390625 32.222656 17.199219 31.046875 16.675781 29.453125 C 16.386719 28.574219 16.304688 27.679688 16.246094 26.761719 C 16.164062 25.570312 16.113281 24.371094 16.074219 23.171875 C 16.003906 20.761719 16.003906 18.339844 16.003906 15.929688 C 16.003906 15.707031 16.148438 15.566406 16.320312 15.523438 C 17.214844 14.53125 18.496094 14.050781 19.820312 13.945312 C 20.539062 13.894531 21.253906 13.917969 21.972656 13.96875 C 22.601562 14.011719 23.246094 14.042969 23.867188 14.175781 C 25.027344 14.414062 26.140625 14.914062 26.988281 15.757812 C 27.433594 16.203125 27.820312 16.699219 28.136719 17.246094 C 28.5 17.875 28.796875 18.542969 29.203125 19.148438 C 29.808594 20.058594 30.570312 20.597656 31.570312 21.019531 C 32.398438 21.367188 33.191406 21.722656 33.738281 22.476562 C 34.714844 23.824219 34.640625 25.628906 34.53125 27.21875 Z M 34.53125 27.21875 "/>
<path style=" stroke:none;fill-rule:nonzero;fill:rgb(0%,0%,0%);fill-opacity:1;" d="M 41.484375 22.675781 C 41.382812 20.480469 41.0625 18.261719 40.25 16.210938 C 39.671875 14.746094 38.804688 13.429688 37.726562 12.289062 C 35.558594 9.980469 32.570312 8.574219 29.535156 7.820312 C 26.464844 7.058594 23.203125 6.984375 20.101562 7.613281 C 16.503906 8.34375 13.152344 10.144531 10.585938 12.769531 C 9.238281 14.152344 8.203125 15.78125 7.542969 17.59375 C 6.902344 19.355469 6.640625 21.210938 6.546875 23.078125 C 6.492188 23.144531 6.464844 23.230469 6.464844 23.335938 C 6.464844 26.777344 7.515625 30.171875 9.238281 33.132812 C 10.882812 35.953125 13.324219 38.460938 16.410156 39.652344 C 18.230469 40.355469 20.210938 40.5 22.152344 40.472656 C 24.445312 40.441406 26.730469 40.082031 28.980469 39.628906 C 32.679688 38.890625 36.503906 37.675781 38.941406 34.597656 C 41.527344 31.3125 41.667969 26.671875 41.484375 22.675781 Z M 40.640625 26.96875 C 40.484375 29.03125 40.050781 31.082031 39.066406 32.910156 C 38.140625 34.625 36.636719 35.914062 34.9375 36.847656 C 33.277344 37.75 31.429688 38.28125 29.59375 38.675781 C 27.34375 39.15625 25.066406 39.53125 22.765625 39.636719 C 20.789062 39.726562 18.726562 39.636719 16.851562 38.957031 C 15.328125 38.394531 13.96875 37.476562 12.789062 36.367188 C 11.058594 34.738281 9.75 32.679688 8.816406 30.503906 C 7.847656 28.261719 7.292969 25.859375 7.269531 23.410156 C 7.316406 23.351562 7.335938 23.277344 7.34375 23.1875 C 7.441406 21.175781 7.757812 19.15625 8.527344 17.285156 C 9.296875 15.417969 10.542969 13.851562 12.027344 12.503906 C 14.8125 9.980469 18.4375 8.507812 22.15625 8.109375 C 28.160156 7.472656 35.402344 9.433594 38.695312 14.871094 C 39.714844 16.558594 40.21875 18.527344 40.480469 20.472656 C 40.757812 22.609375 40.804688 24.816406 40.640625 26.96875 Z M 40.640625 26.96875 "/>
<path style=" stroke:none;fill-rule:nonzero;fill:rgb(0%,0%,0%);fill-opacity:1;" d="M 33.738281 22.46875 C 33.191406 21.714844 32.398438 21.359375 31.570312 21.011719 C 30.570312 20.589844 29.800781 20.058594 29.203125 19.140625 C 28.796875 18.535156 28.5 17.867188 28.136719 17.238281 C 27.824219 16.691406 27.433594 16.195312 26.988281 15.75 C 26.144531 14.90625 25.027344 14.414062 23.867188 14.167969 C 23.246094 14.042969 22.609375 14.003906 21.972656 13.960938 C 21.253906 13.910156 20.539062 13.886719 19.820312 13.9375 C 18.496094 14.042969 17.214844 14.523438 16.320312 15.515625 C 16.148438 15.558594 16.003906 15.699219 16.003906 15.921875 C 16.003906 18.332031 16.003906 20.753906 16.074219 23.164062 C 16.113281 24.363281 16.164062 25.554688 16.246094 26.753906 C 16.304688 27.671875 16.386719 28.566406 16.675781 29.449219 C 17.199219 31.039062 18.390625 32.214844 19.996094 32.6875 C 22.152344 33.316406 24.472656 32.777344 26.679688 32.902344 C 28.660156 33.015625 30.835938 32.902344 32.523438 31.734375 C 33.996094 30.707031 34.410156 28.898438 34.53125 27.214844 C 34.640625 25.628906 34.714844 23.824219 33.738281 22.46875 Z M 33.761719 26.539062 C 33.730469 27.40625 33.648438 28.269531 33.40625 29.105469 C 33.167969 29.929688 32.679688 30.640625 31.984375 31.128906 C 31.140625 31.710938 30.066406 31.964844 29.0625 32.074219 C 28.039062 32.183594 27.035156 32.097656 26.003906 32.066406 C 24.859375 32.03125 23.710938 32.164062 22.574219 32.179688 C 21.527344 32.191406 20.449219 32.097656 19.496094 31.644531 C 18.777344 31.304688 18.230469 30.734375 17.828125 30.054688 C 17.378906 29.292969 17.191406 28.390625 17.121094 27.515625 C 17.015625 26.242188 16.949219 24.972656 16.90625 23.691406 C 16.816406 21.191406 16.816406 18.6875 16.816406 16.1875 C 18.074219 14.6875 20.109375 14.640625 21.929688 14.773438 C 23.570312 14.894531 25.132812 15.136719 26.382812 16.300781 C 27.78125 17.601562 28.136719 19.652344 29.644531 20.871094 C 30.4375 21.515625 31.429688 21.730469 32.296875 22.234375 C 32.984375 22.632812 33.382812 23.3125 33.589844 24.0625 C 33.8125 24.859375 33.789062 25.71875 33.761719 26.539062 Z M 33.761719 26.539062 "/>
<path style=" stroke:none;fill-rule:nonzero;fill:rgb(0%,0%,0%);fill-opacity:1;" d="M 29.683594 25.785156 C 29.277344 24.15625 27.367188 24.054688 26.003906 24.195312 C 24.621094 24.335938 23.230469 24.34375 21.847656 24.550781 C 21.765625 24.5625 21.707031 24.59375 21.648438 24.628906 C 21.542969 24.628906 21.441406 24.667969 21.34375 24.757812 C 20.789062 25.339844 20.597656 26.101562 20.773438 26.886719 C 20.953125 27.671875 21.609375 28.226562 22.328125 28.507812 C 23.222656 28.855469 24.238281 28.753906 25.167969 28.679688 C 25.917969 28.617188 26.679688 28.648438 27.417969 28.53125 C 28.09375 28.425781 28.734375 28.203125 29.246094 27.738281 C 29.808594 27.234375 29.851562 26.457031 29.683594 25.785156 Z M 28.261719 27.449219 C 27.722656 27.707031 27.101562 27.773438 26.507812 27.796875 C 25.652344 27.835938 24.792969 27.914062 23.941406 27.929688 C 23.171875 27.945312 22.296875 27.804688 21.808594 27.152344 C 21.386719 26.589844 21.484375 25.867188 21.921875 25.363281 C 22.980469 25.199219 24.046875 25.15625 25.109375 25.082031 C 25.933594 25.03125 26.761719 24.867188 27.582031 24.992188 C 28.226562 25.089844 28.730469 25.414062 28.914062 26.050781 C 29.097656 26.664062 28.816406 27.183594 28.261719 27.449219 Z M 25 17.859375 C 24.6875 17.410156 24.140625 17.195312 23.628906 17.054688 C 22.527344 16.75 20.9375 16.78125 20.019531 17.527344 C 19.21875 18.179688 19.042969 19.753906 19.996094 20.101562 C 20.003906 20.125 20.019531 20.148438 20.027344 20.167969 C 20.316406 20.175781 20.605469 20.214844 20.886719 20.257812 C 21.460938 20.167969 22.097656 20.273438 22.660156 20.21875 C 23.421875 20.148438 24.636719 20.265625 25.042969 19.464844 C 25.308594 18.941406 25.339844 18.339844 25 17.859375 Z M 24.40625 18.875 C 24.386719 18.976562 24.324219 19.082031 24.28125 19.175781 C 24.265625 19.207031 23.890625 19.28125 23.835938 19.296875 C 23.246094 19.421875 22.578125 19.429688 21.972656 19.4375 C 21.617188 19.4375 21.242188 19.414062 20.886719 19.445312 C 20.8125 19.371094 20.707031 19.316406 20.566406 19.339844 C 20.128906 19.390625 20.101562 19.15625 20.175781 18.769531 C 20.269531 18.265625 20.679688 18 21.136719 17.859375 C 21.914062 17.617188 22.890625 17.636719 23.660156 17.90625 C 23.933594 18 24.273438 18.148438 24.398438 18.429688 C 24.464844 18.578125 24.445312 18.726562 24.40625 18.875 Z M 24.40625 18.875 "/>
<path style=" stroke:none;fill-rule:nonzero;fill:rgb(45.490196%,80%,81.176471%);fill-opacity:1;" d="M 35.433594 35.578125 C 35.484375 33.832031 35.472656 32.027344 35.34375 30.285156 C 37.65625 30.253906 39.785156 30.5 42.09375 30.472656 C 42.128906 32.164062 42.058594 33.652344 42.09375 35.34375 C 44.0625 35.53125 45.75 35.25 47.4375 35.34375 C 47.523438 37.46875 47.53125 42.09375 47.53125 42.09375 C 47.484375 42.179688 45.878906 42.28125 45.171875 42.242188 C 44.15625 42.1875 43.3125 42.28125 42.375 42.28125 C 42.1875 44.15625 42.445312 45.675781 42.28125 47.53125 C 40.03125 47.4375 37.875 47.4375 35.53125 47.53125 C 35.53125 47.53125 35.527344 47.121094 35.53125 46.96875 C 35.59375 45.289062 35.472656 43.867188 35.53125 42.1875 C 33.824219 42.226562 32.027344 42.433594 30.378906 42.375 C 30.363281 40.253906 30.378906 36.09375 30.285156 35.71875 C 30.265625 35.644531 33.753906 35.71875 35.390625 35.578125 Z M 35.433594 35.578125 "/>
<path style=" stroke:none;fill-rule:nonzero;fill:rgb(0%,0%,0%);fill-opacity:1;" d="M 42.28125 48 C 42.277344 48 42.269531 48 42.261719 48 C 40.019531 47.90625 37.886719 47.90625 35.550781 48 C 35.425781 48.003906 35.300781 47.957031 35.210938 47.871094 C 35.117188 47.785156 35.066406 47.664062 35.0625 47.539062 C 35.0625 47.496094 35.058594 47.109375 35.066406 46.953125 C 35.09375 46.125 35.078125 45.34375 35.0625 44.585938 C 35.050781 43.972656 35.039062 43.339844 35.050781 42.671875 C 34.550781 42.691406 34.039062 42.722656 33.542969 42.75 C 32.488281 42.816406 31.394531 42.878906 30.363281 42.84375 C 30.109375 42.835938 29.910156 42.628906 29.910156 42.378906 C 29.90625 41.867188 29.902344 41.242188 29.902344 40.574219 C 29.894531 38.8125 29.886719 36.144531 29.828125 35.824219 C 29.792969 35.6875 29.824219 35.542969 29.914062 35.429688 C 30.066406 35.234375 30.246094 35.230469 30.722656 35.21875 C 30.996094 35.214844 31.367188 35.210938 31.796875 35.207031 C 32.769531 35.203125 34.058594 35.195312 34.976562 35.140625 C 35.015625 33.355469 34.984375 31.773438 34.878906 30.316406 C 34.867188 30.1875 34.914062 30.0625 35 29.964844 C 35.085938 29.871094 35.210938 29.816406 35.339844 29.816406 C 36.511719 29.800781 37.644531 29.855469 38.742188 29.910156 C 39.828125 29.960938 40.945312 30.015625 42.089844 30.003906 C 42.347656 30 42.558594 30.203125 42.5625 30.460938 C 42.582031 31.316406 42.570312 32.128906 42.5625 32.914062 C 42.554688 33.558594 42.546875 34.226562 42.554688 34.910156 C 43.472656 34.96875 44.335938 34.933594 45.175781 34.898438 C 45.960938 34.867188 46.703125 34.835938 47.464844 34.878906 C 47.703125 34.890625 47.894531 35.085938 47.90625 35.328125 C 47.992188 37.433594 48 42.046875 48 42.09375 C 48 42.175781 47.976562 42.257812 47.9375 42.332031 C 47.796875 42.566406 47.601562 42.621094 46.628906 42.679688 C 46.179688 42.710938 45.558594 42.730469 45.148438 42.710938 C 44.546875 42.679688 43.992188 42.699219 43.457031 42.722656 C 43.242188 42.730469 43.027344 42.738281 42.808594 42.746094 C 42.753906 43.515625 42.773438 44.226562 42.789062 44.972656 C 42.808594 45.792969 42.832031 46.644531 42.75 47.574219 C 42.726562 47.816406 42.523438 48 42.28125 48 Z M 38.941406 46.992188 C 39.910156 46.992188 40.871094 47.011719 41.847656 47.046875 C 41.886719 46.34375 41.871094 45.683594 41.851562 44.996094 C 41.832031 44.125 41.808594 43.226562 41.910156 42.234375 C 41.933594 41.996094 42.136719 41.8125 42.375 41.8125 C 42.730469 41.8125 43.0625 41.800781 43.417969 41.785156 C 43.976562 41.761719 44.554688 41.738281 45.199219 41.773438 C 45.6875 41.800781 46.582031 41.757812 47.0625 41.707031 C 47.058594 40.640625 47.042969 37.617188 46.984375 35.796875 C 46.40625 35.785156 45.824219 35.808594 45.214844 35.835938 C 44.21875 35.878906 43.1875 35.921875 42.050781 35.8125 C 41.8125 35.789062 41.632812 35.59375 41.625 35.355469 C 41.609375 34.5 41.617188 33.6875 41.625 32.902344 C 41.632812 32.269531 41.640625 31.617188 41.632812 30.941406 C 40.628906 30.941406 39.648438 30.890625 38.695312 30.847656 C 37.769531 30.800781 36.816406 30.753906 35.847656 30.75 C 35.933594 32.214844 35.953125 33.804688 35.902344 35.59375 C 35.894531 35.847656 35.6875 36.046875 35.433594 36.046875 L 35.414062 36.046875 C 34.464844 36.128906 32.929688 36.136719 31.804688 36.144531 C 31.4375 36.148438 31.0625 36.152344 30.789062 36.15625 C 30.820312 36.867188 30.832031 38.25 30.839844 40.574219 C 30.839844 41.050781 30.839844 41.507812 30.84375 41.917969 C 31.703125 41.921875 32.609375 41.867188 33.488281 41.816406 C 34.15625 41.777344 34.847656 41.734375 35.523438 41.71875 C 35.652344 41.714844 35.777344 41.765625 35.867188 41.859375 C 35.957031 41.949219 36.007812 42.078125 36 42.207031 C 35.972656 43.03125 35.988281 43.8125 36 44.570312 C 36.015625 45.339844 36.03125 46.132812 36 46.984375 C 36 47 36 47.023438 36 47.042969 C 37.007812 47.011719 37.980469 46.992188 38.941406 46.992188 Z M 38.941406 46.992188 "/>
</g>
</svg>
